<?xml version="1.0" encoding="UTF-8"?>
<svg height="128px" viewBox="0 0 128 128" width="128px" xmlns="http://www.w3.org/2000/svg">
    <path d="m 15.871094 28.398438 c -0.261719 0 -0.515625 0.011718 -0.769532 0.039062 c -0.253906 0.027344 -0.503906 0.0625 -0.75 0.113281 c -0.246093 0.050781 -0.484374 0.113281 -0.722656 0.183594 c -0.234375 0.074219 -0.464844 0.160156 -0.691406 0.253906 s -0.445312 0.199219 -0.65625 0.316407 c -0.214844 0.117187 -0.421875 0.242187 -0.621094 0.375 c -0.398437 0.273437 -0.773437 0.578124 -1.113281 0.917968 s -0.644531 0.714844 -0.914063 1.113282 c -0.136718 0.199218 -0.261718 0.40625 -0.378906 0.617187 c -0.117187 0.214844 -0.222656 0.433594 -0.316406 0.660156 c -0.09375 0.226563 -0.179688 0.457031 -0.25 0.691407 c -0.074219 0.238281 -0.136719 0.476562 -0.1875 0.722656 s -0.085938 0.496094 -0.113281 0.75 c -0.027344 0.253906 -0.035157 0.507812 -0.035157 0.769531 v 72.371094 c 0 0.261719 0.007813 0.519531 0.035157 0.773437 c 0.027343 0.253906 0.0625 0.503906 0.113281 0.746094 c 0.050781 0.246094 0.113281 0.488281 0.1875 0.722656 c 0.070312 0.238282 0.15625 0.46875 0.25 0.691406 c 0.09375 0.226563 0.199219 0.445313 0.316406 0.660157 c 0.117188 0.214843 0.242188 0.421875 0.378906 0.621093 c 0.269532 0.398438 0.574219 0.769532 0.914063 1.109376 c 0.339844 0.34375 0.714844 0.648437 1.113281 0.917968 c 0.199219 0.136719 0.40625 0.261719 0.621094 0.378906 c 0.210938 0.117188 0.429688 0.21875 0.65625 0.3125 c 0.226562 0.097657 0.457031 0.179688 0.691406 0.253907 c 0.238282 0.074219 0.476563 0.136719 0.722656 0.183593 c 0.246094 0.050782 0.496094 0.089844 0.75 0.113282 c 0.253907 0.027344 0.507813 0.042968 0.769532 0.042968 h 96.265625 c 0.261719 0 0.519531 -0.015624 0.773437 -0.042968 c 0.253906 -0.023438 0.503906 -0.0625 0.75 -0.113282 c 0.246094 -0.046874 0.484375 -0.109374 0.722656 -0.183593 c 0.234376 -0.074219 0.464844 -0.15625 0.691407 -0.253907 c 0.226562 -0.09375 0.441406 -0.195312 0.65625 -0.3125 c 0.214843 -0.117187 0.421875 -0.242187 0.621093 -0.378906 c 0.398438 -0.269531 0.773438 -0.574218 1.113282 -0.917968 c 0.339844 -0.339844 0.644531 -0.710938 0.917968 -1.109376 c 0.132813 -0.199218 0.257813 -0.40625 0.375 -0.621093 c 0.117188 -0.214844 0.222657 -0.433594 0.316407 -0.660157 c 0.09375 -0.222656 0.179687 -0.453124 0.25 -0.691406 c 0.074219 -0.234375 0.136719 -0.476562 0.1875 -0.722656 c 0.046875 -0.242188 0.085937 -0.492188 0.113281 -0.746094 s 0.035156 -0.511718 0.035156 -0.773437 v -72.371094 c 0 -0.261719 -0.007812 -0.515625 -0.035156 -0.769531 s -0.066406 -0.503906 -0.113281 -0.75 c -0.050781 -0.246094 -0.113281 -0.484375 -0.1875 -0.722656 c -0.070313 -0.234376 -0.15625 -0.464844 -0.25 -0.691407 c -0.09375 -0.226562 -0.199219 -0.445312 -0.316407 -0.660156 c -0.117187 -0.210937 -0.242187 -0.417969 -0.375 -0.617187 c -0.273437 -0.398438 -0.578124 -0.773438 -0.917968 -1.113282 s -0.714844 -0.644531 -1.113282 -0.917968 c -0.199218 -0.132813 -0.40625 -0.257813 -0.621093 -0.375 c -0.214844 -0.117188 -0.429688 -0.222657 -0.65625 -0.316407 c -0.226563 -0.09375 -0.457031 -0.179687 -0.691407 -0.253906 c -0.238281 -0.070313 -0.476562 -0.132813 -0.722656 -0.183594 s -0.496094 -0.085937 -0.75 -0.113281 s -0.511718 -0.039062 -0.773437 -0.039062 z m 0 0" fill="#1c71d8"/>
    <path d="m 76.5625 36.992188 c -3.074219 0.035156 -5.542969 2.589843 -5.542969 5.765624 v 1.953126 h -0.015625 v 4.5625 c 0 3.195312 -2.238281 5.769531 -5.023437 5.769531 h -37.453125 v 0.015625 h -10.726563 c -2.789062 0 -5.039062 2.578125 -5.039062 5.773437 v 44.734375 c 0.257812 3.261719 2.605469 5.8125 5.515625 5.8125 h 90.660156 c 3.085938 0 5.566406 -2.851562 5.566406 -6.390625 v -61.605469 c 0 -3.542968 -2.480468 -6.390624 -5.566406 -6.390624 z m 0 0" fill="#62a0ea"/>
    <g fill="#99c1f1">
        <path d="m 14.585938 64.113281 v 33.027344 h 25.542968 c 2.152344 0 3.886719 -1.734375 3.886719 -3.886719 v -25.253906 c 0 -2.152344 -1.734375 -3.886719 -3.886719 -3.886719 z m 0 0"/>
        <path d="m 14.824219 99.261719 c -0.058594 0 -0.117188 0.003906 -0.179688 0.007812 c 0.003907 0.019531 0.003907 0.042969 0.003907 0.066407 v 4.789062 c 0.058593 0.003906 0.117187 0.007812 0.175781 0.007812 h 16.890625 c 1.347656 0 2.4375 -1.085937 2.4375 -2.4375 c 0 -1.347656 -1.089844 -2.433593 -2.4375 -2.433593 z m 0 0"/>
        <path d="m 112.53125 64.460938 v 33.027343 h -25.542969 c -2.15625 0 -3.890625 -1.734375 -3.890625 -3.886719 v -25.253906 c 0 -2.152344 1.734375 -3.886718 3.890625 -3.886718 z m 0 0"/>
        <path d="m 112.292969 99.605469 c 0.058593 0 0.117187 0.003906 0.175781 0.007812 c 0 0.023438 -0.003906 0.046875 -0.003906 0.066407 v 4.789062 c -0.058594 0.003906 -0.113282 0.007812 -0.171875 0.007812 h -16.890625 c -1.351563 0 -2.4375 -1.085937 -2.4375 -2.433593 c 0 -1.351563 1.085937 -2.4375 2.4375 -2.4375 z m 0 0"/>
        <path d="m 60.453125 91.144531 c -1.457031 -0.5625 -2.65625 -1.335937 -3.726563 -2.410156 c -0.835937 -0.835937 -1.457031 -1.703125 -1.976562 -2.769531 c -0.476562 -0.96875 -0.753906 -1.835938 -0.9375 -2.914063 c -0.109375 -0.648437 -0.152344 -1.976562 -0.082031 -2.667969 c 0.25 -2.496093 1.351562 -4.753906 3.175781 -6.5 c 1.601562 -1.535156 3.578125 -2.476562 5.886719 -2.808593 c 0.484375 -0.070313 2.082031 -0.070313 2.585937 0 c 1.984375 0.277343 3.816406 1.070312 5.304688 2.300781 c 1.851562 1.523438 3.125 3.648438 3.59375 5.988281 c 0.140625 0.710938 0.1875 1.207031 0.1875 2.0625 c -0.003906 1.699219 -0.355469 3.167969 -1.128906 4.691407 c -1.152344 2.261718 -3.121094 4.050781 -5.492188 4.980468 c -0.574219 0.222656 -0.800781 0.234375 -0.992188 0.042969 l -0.105468 -0.109375 l -0.027344 -1.882812 c -0.019531 -1.621094 -0.03125 -1.914063 -0.09375 -2.121094 c -0.089844 -0.3125 -0.273438 -0.675782 -0.433594 -0.855469 l -0.125 -0.144531 l 0.09375 -0.015625 c 0.054688 -0.011719 0.308594 -0.058594 0.570313 -0.105469 c 0.917969 -0.164062 1.730469 -0.472656 2.289062 -0.875 c 1.046875 -0.75 1.621094 -1.949219 1.734375 -3.625 c 0.082032 -1.28125 -0.167968 -2.238281 -0.820312 -3.097656 l -0.203125 -0.269532 l 0.070312 -0.25 c 0.039063 -0.152343 0.078125 -0.472656 0.089844 -0.808593 c 0.019531 -0.605469 -0.035156 -0.988281 -0.207031 -1.472657 l -0.089844 -0.253906 l -0.347656 0.007813 c -0.574219 0.011719 -1.421875 0.339843 -2.261719 0.878906 l -0.285156 0.183594 l -0.285157 -0.070313 c -0.765624 -0.195312 -1.914062 -0.308594 -2.703124 -0.265625 c -0.597657 0.03125 -1.484376 0.152344 -1.90625 0.261719 l -0.296876 0.078125 l -0.355468 -0.222656 c -0.765625 -0.488281 -1.59375 -0.8125 -2.167969 -0.855469 c -0.300781 -0.023438 -0.316406 -0.023438 -0.378906 0.074219 c -0.039063 0.058593 -0.117188 0.285156 -0.175781 0.507812 c -0.09375 0.347657 -0.109376 0.480469 -0.109376 1.011719 c 0 0.484375 0.019532 0.671875 0.082032 0.910156 l 0.082031 0.296875 l -0.132813 0.164063 c -0.367187 0.4375 -0.671874 1.070312 -0.816406 1.683594 c -0.101562 0.4375 -0.101562 1.691406 0 2.257812 c 0.378906 2.140625 1.585938 3.308594 3.855469 3.734375 c 0.300781 0.054687 0.589844 0.109375 0.644531 0.121094 l 0.09375 0.019531 l -0.125 0.140625 c -0.175781 0.203125 -0.320312 0.503906 -0.414062 0.867187 c -0.042969 0.171876 -0.109375 0.332032 -0.144532 0.359376 c -0.03125 0.023437 -0.210937 0.085937 -0.394531 0.136718 c -0.660156 0.183594 -1.304687 0.101563 -1.804687 -0.230468 c -0.261719 -0.171876 -0.429688 -0.359376 -0.707032 -0.769532 c -0.457031 -0.675781 -0.972656 -1.042968 -1.515624 -1.074218 c -0.765626 -0.042969 -0.839844 0.226562 -0.183594 0.679687 c 0.402344 0.277344 0.71875 0.695313 1.070312 1.414063 c 0.296875 0.609374 0.5 0.863281 0.851563 1.074218 c 0.5 0.300782 1.308593 0.425782 2.140625 0.332032 c 0.234375 -0.027344 0.457031 -0.058594 0.496094 -0.070313 c 0.066406 -0.019531 0.074218 0.046875 0.074218 1.003906 c 0 1.144531 -0.015625 1.222657 -0.269531 1.328125 c -0.203125 0.085938 -0.367187 0.066406 -0.75 -0.078125 z m 0 0"/>
    </g>
</svg>
