<?xml version="1.0" encoding="UTF-8"?>
<svg height="16px" viewBox="0 0 16 16" width="16px" xmlns="http://www.w3.org/2000/svg">
    <path d="m 6.972656 9.445312 c -0.355468 -0.136718 -0.648437 -0.328124 -0.910156 -0.589843 c -0.203125 -0.203125 -0.355469 -0.414063 -0.484375 -0.675781 c -0.113281 -0.234376 -0.183594 -0.445313 -0.226563 -0.710938 c -0.027343 -0.15625 -0.039062 -0.480469 -0.019531 -0.652344 c 0.058594 -0.609375 0.328125 -1.160156 0.773438 -1.585937 c 0.390625 -0.375 0.875 -0.605469 1.4375 -0.683594 c 0.117187 -0.019531 0.507812 -0.019531 0.632812 0 c 0.480469 0.066406 0.929688 0.261719 1.292969 0.558594 c 0.453125 0.375 0.761719 0.890625 0.878906 1.464843 c 0.03125 0.171876 0.042969 0.292969 0.042969 0.5 c 0 0.417969 -0.085937 0.773438 -0.273437 1.148438 c -0.28125 0.550781 -0.761719 0.988281 -1.339844 1.214844 c -0.140625 0.054687 -0.195313 0.058594 -0.242188 0.011718 l -0.027344 -0.027343 l -0.003906 -0.460938 c -0.007812 -0.394531 -0.011718 -0.464843 -0.023437 -0.515625 c -0.023438 -0.078125 -0.070313 -0.167968 -0.105469 -0.210937 l -0.03125 -0.035157 l 0.023438 -0.003906 c 0.011718 0 0.074218 -0.011718 0.136718 -0.023437 c 0.226563 -0.042969 0.421875 -0.117188 0.558594 -0.214844 c 0.257812 -0.183594 0.398438 -0.476563 0.425781 -0.886719 c 0.019531 -0.3125 -0.042969 -0.542968 -0.203125 -0.753906 l -0.046875 -0.066406 l 0.015625 -0.0625 c 0.011719 -0.035156 0.019532 -0.113282 0.023438 -0.195313 c 0.003906 -0.148437 -0.007813 -0.242187 -0.050782 -0.359375 l -0.023437 -0.0625 l -0.082031 0.003906 c -0.140625 0 -0.347656 0.082032 -0.554688 0.210938 l -0.070312 0.046875 l -0.066406 -0.019531 c -0.1875 -0.046875 -0.46875 -0.074219 -0.664063 -0.0625 c -0.144531 0.007812 -0.359375 0.035156 -0.464844 0.0625 l -0.070312 0.019531 l -0.085938 -0.054687 c -0.1875 -0.117188 -0.390625 -0.199219 -0.53125 -0.207032 c -0.074219 -0.007812 -0.078125 -0.007812 -0.09375 0.015625 c -0.007812 0.015625 -0.027343 0.070313 -0.042969 0.125 c -0.019531 0.085938 -0.023437 0.117188 -0.023437 0.246094 c 0 0.121094 0.003906 0.164063 0.019531 0.222656 l 0.019532 0.074219 l -0.03125 0.039062 c -0.089844 0.105469 -0.164063 0.261719 -0.199219 0.410157 c -0.027344 0.109375 -0.027344 0.414062 -0.003907 0.550781 c 0.09375 0.523438 0.390626 0.808594 0.941407 0.914062 c 0.074219 0.011719 0.144531 0.027344 0.160156 0.027344 l 0.023437 0.003906 l -0.03125 0.035157 c -0.042968 0.050781 -0.078124 0.125 -0.101562 0.210937 c -0.011719 0.042969 -0.027344 0.082032 -0.035156 0.089844 c -0.007813 0.003906 -0.050782 0.019531 -0.097656 0.03125 c -0.160157 0.046875 -0.316407 0.027344 -0.441407 -0.054688 c -0.0625 -0.042968 -0.101562 -0.085937 -0.171875 -0.1875 c -0.109375 -0.164062 -0.238281 -0.253906 -0.367187 -0.261718 c -0.1875 -0.011719 -0.207031 0.054687 -0.046875 0.164062 c 0.097656 0.070313 0.175781 0.171875 0.261718 0.347656 c 0.074219 0.148438 0.121094 0.207032 0.207032 0.261719 c 0.121094 0.074219 0.320312 0.101563 0.523437 0.078125 c 0.058594 -0.003906 0.113281 -0.011718 0.121094 -0.015625 c 0.015625 -0.003906 0.015625 0.011719 0.015625 0.246094 c 0 0.277344 -0.003906 0.296875 -0.0625 0.324219 c -0.050781 0.019531 -0.089844 0.015625 -0.183594 -0.019532 z m 0 0"/>
    <path d="m 1.4375 1.726562 c -0.59375 0 -1.070312 0.472657 -1.070312 1.066407 v 8.496093 c 0 0.589844 0.476562 1.066407 1.070312 1.066407 h 13.03125 c 0.589844 0 1.0625 -0.476563 1.0625 -1.066407 v -8.496093 c 0 -0.59375 -0.472656 -1.066407 -1.0625 -1.066407 z m 1.589844 1.898438 h 9.515625 c 0.382812 0 0.6875 0.308594 0.6875 0.691406 v 5.496094 c 0 0.382812 -0.304688 0.691406 -0.6875 0.691406 h -9.515625 c -0.382813 0 -0.691406 -0.308594 -0.691406 -0.691406 v -5.496094 c 0 -0.382812 0.308593 -0.691406 0.691406 -0.691406 z m 0 0"/>
    <path d="m 4.199219 13.234375 h 7.714843 c 0.394532 0 0.714844 0.320313 0.714844 0.710937 v 0.675782 c 0 0.390625 -0.320312 0.710937 -0.714844 0.710937 h -7.714843 c -0.394531 0 -0.714844 -0.320312 -0.714844 -0.710937 v -0.675782 c 0 -0.390624 0.320313 -0.710937 0.714844 -0.710937 z m 0 0"/>
</svg>
