<?xml version="1.0" encoding="UTF-8" standalone="no"?>
<svg
   height="128px"
   viewBox="0 0 128 128"
   width="128px"
   version="1.1"
   id="svg7"
   sodipodi:docname="org.htg.hashfolder.svg"
   inkscape:version="1.3 (0e150ed6c4, 2023-07-21)"
   inkscape:export-filename="../../../../../Gnome Icon Projects/org.htg.hashfolder.png"
   inkscape:export-xdpi="360"
   inkscape:export-ydpi="360"
   xmlns:inkscape="http://www.inkscape.org/namespaces/inkscape"
   xmlns:sodipodi="http://sodipodi.sourceforge.net/DTD/sodipodi-0.dtd"
   xmlns="http://www.w3.org/2000/svg"
   xmlns:svg="http://www.w3.org/2000/svg">
  <defs
     id="defs7" />
  <sodipodi:namedview
     id="namedview7"
     pagecolor="#ffffff"
     bordercolor="#000000"
     borderopacity="0.25"
     inkscape:showpageshadow="2"
     inkscape:pageopacity="0.0"
     inkscape:pagecheckerboard="0"
     inkscape:deskcolor="#d1d1d1"
     inkscape:zoom="3.8515625"
     inkscape:cx="40.243408"
     inkscape:cy="74.385396"
     inkscape:window-width="1366"
     inkscape:window-height="699"
     inkscape:window-x="0"
     inkscape:window-y="0"
     inkscape:window-maximized="1"
     inkscape:current-layer="svg7" />
  <path
     d="m 15.871094 28.398438 c -0.261719 0 -0.515625 0.011718 -0.769532 0.039062 c -0.253906 0.027344 -0.503906 0.0625 -0.75 0.113281 c -0.246093 0.050781 -0.484374 0.113281 -0.722656 0.183594 c -0.234375 0.074219 -0.464844 0.160156 -0.691406 0.253906 s -0.445312 0.199219 -0.65625 0.316407 c -0.214844 0.117187 -0.421875 0.242187 -0.621094 0.375 c -0.398437 0.273437 -0.773437 0.578124 -1.113281 0.917968 s -0.644531 0.714844 -0.914063 1.113282 c -0.136718 0.199218 -0.261718 0.40625 -0.378906 0.617187 c -0.117187 0.214844 -0.222656 0.433594 -0.316406 0.660156 c -0.09375 0.226563 -0.179688 0.457031 -0.25 0.691407 c -0.074219 0.238281 -0.136719 0.476562 -0.1875 0.722656 s -0.085938 0.496094 -0.113281 0.75 c -0.027344 0.253906 -0.035157 0.507812 -0.035157 0.769531 v 72.371094 c 0 0.261719 0.007813 0.519531 0.035157 0.773437 c 0.027343 0.253906 0.0625 0.503906 0.113281 0.746094 c 0.050781 0.246094 0.113281 0.488281 0.1875 0.722656 c 0.070312 0.238282 0.15625 0.46875 0.25 0.691406 c 0.09375 0.226563 0.199219 0.445313 0.316406 0.660157 c 0.117188 0.214843 0.242188 0.421875 0.378906 0.621093 c 0.269532 0.398438 0.574219 0.769532 0.914063 1.109376 c 0.339844 0.34375 0.714844 0.648437 1.113281 0.917968 c 0.199219 0.136719 0.40625 0.261719 0.621094 0.378906 c 0.210938 0.117188 0.429688 0.21875 0.65625 0.3125 c 0.226562 0.097657 0.457031 0.179688 0.691406 0.253907 c 0.238282 0.074219 0.476563 0.136719 0.722656 0.183593 c 0.246094 0.050782 0.496094 0.089844 0.75 0.113282 c 0.253907 0.027344 0.507813 0.042968 0.769532 0.042968 h 96.265625 c 0.261719 0 0.519531 -0.015624 0.773437 -0.042968 c 0.253906 -0.023438 0.503906 -0.0625 0.75 -0.113282 c 0.246094 -0.046874 0.484375 -0.109374 0.722656 -0.183593 c 0.234376 -0.074219 0.464844 -0.15625 0.691407 -0.253907 c 0.226562 -0.09375 0.441406 -0.195312 0.65625 -0.3125 c 0.214843 -0.117187 0.421875 -0.242187 0.621093 -0.378906 c 0.398438 -0.269531 0.773438 -0.574218 1.113282 -0.917968 c 0.339844 -0.339844 0.644531 -0.710938 0.917968 -1.109376 c 0.132813 -0.199218 0.257813 -0.40625 0.375 -0.621093 c 0.117188 -0.214844 0.222657 -0.433594 0.316407 -0.660157 c 0.09375 -0.222656 0.179687 -0.453124 0.25 -0.691406 c 0.074219 -0.234375 0.136719 -0.476562 0.1875 -0.722656 c 0.046875 -0.242188 0.085937 -0.492188 0.113281 -0.746094 s 0.035156 -0.511718 0.035156 -0.773437 v -72.371094 c 0 -0.261719 -0.007812 -0.515625 -0.035156 -0.769531 s -0.066406 -0.503906 -0.113281 -0.75 c -0.050781 -0.246094 -0.113281 -0.484375 -0.1875 -0.722656 c -0.070313 -0.234376 -0.15625 -0.464844 -0.25 -0.691407 c -0.09375 -0.226562 -0.199219 -0.445312 -0.316407 -0.660156 c -0.117187 -0.210937 -0.242187 -0.417969 -0.375 -0.617187 c -0.273437 -0.398438 -0.578124 -0.773438 -0.917968 -1.113282 s -0.714844 -0.644531 -1.113282 -0.917968 c -0.199218 -0.132813 -0.40625 -0.257813 -0.621093 -0.375 c -0.214844 -0.117188 -0.429688 -0.222657 -0.65625 -0.316407 c -0.226563 -0.09375 -0.457031 -0.179687 -0.691407 -0.253906 c -0.238281 -0.070313 -0.476562 -0.132813 -0.722656 -0.183594 s -0.496094 -0.085937 -0.75 -0.113281 s -0.511718 -0.039062 -0.773437 -0.039062 z m 0 0"
     fill="#1c71d8"
     id="path1" />
  <path
     d="m 77.19015,31.874021 c -3.192345,0.03851 -5.755955,2.836203 -5.755955,6.314084 v 2.138918 h -0.01622 v 4.996511 c 0,3.499268 -2.324286,6.318362 -5.216461,6.318362 H 27.309265 V 51.659 H 16.170538 c -2.896231,0 -5.232686,2.82337 -5.232686,6.322639 v 48.989781 c 0.267718,3.57199 2.705583,6.36542 5.72756,6.36542 h 94.143738 c 3.20451,0 5.78029,-3.12283 5.78029,-6.99854 V 38.872556 c 0,-3.879995 -2.57578,-6.998535 -5.78029,-6.998535 z m 0,0"
     fill="#62a0ea"
     id="path2"
     style="stroke-width:1.06641" />
  <g
     fill="#99c1f1"
     id="g7"
     transform="matrix(1.0384246,0,0,1.0769813,-2.3142305,-7.5748594)">
    <path
       d="m 14.585938,64.113281 v 33.027344 h 25.542968 c 2.152344,0 3.886719,-1.734375 3.886719,-3.886719 V 68 c 0,-2.152344 -1.734375,-3.886719 -3.886719,-3.886719 z m 0,0"
       id="path3" />
    <path
       d="m 14.824219,99.261719 c -0.05859,0 -0.117188,0.0039 -0.179688,0.0078 0.0039,0.01953 0.0039,0.04297 0.0039,0.06641 V 104.125 c 0.05859,0.004 0.117187,0.008 0.175781,0.008 h 16.890625 c 1.347656,0 2.4375,-1.08593 2.4375,-2.4375 0,-1.34765 -1.089844,-2.433591 -2.4375,-2.433591 z m 0,0"
       id="path4" />
    <path
       d="M 112.53125,64.460938 V 97.488281 H 86.988281 c -2.15625,0 -3.890625,-1.734375 -3.890625,-3.886719 V 68.347656 c 0,-2.152344 1.734375,-3.886718 3.890625,-3.886718 z m 0,0"
       id="path5" />
    <path
       d="m 112.29297,99.605469 c 0.0586,0 0.11719,0.0039 0.17578,0.0078 0,0.02344 -0.004,0.04687 -0.004,0.06641 v 4.789061 c -0.0586,0.004 -0.11328,0.008 -0.17187,0.008 H 95.402344 c -1.351563,0 -2.4375,-1.08593 -2.4375,-2.43359 0,-1.35156 1.085937,-2.4375 2.4375,-2.4375 z m 0,0"
       id="path6" />
    <path
       d="m 60.453125,91.144531 c -1.457031,-0.5625 -2.65625,-1.335937 -3.726563,-2.410156 C 55.890625,87.898438 55.269531,87.03125 54.75,85.964844 c -0.476562,-0.96875 -0.753906,-1.835938 -0.9375,-2.914063 -0.109375,-0.648437 -0.152344,-1.976562 -0.08203,-2.667969 0.25,-2.496093 1.351562,-4.753906 3.175781,-6.5 1.601562,-1.535156 3.578125,-2.476562 5.886719,-2.808593 0.484375,-0.07031 2.082031,-0.07031 2.585937,0 1.984375,0.277343 3.816406,1.070312 5.304688,2.300781 1.851562,1.523438 3.125,3.648438 3.59375,5.988281 0.140625,0.710938 0.1875,1.207031 0.1875,2.0625 -0.0039,1.699219 -0.355469,3.167969 -1.128906,4.691407 -1.152344,2.261718 -3.121094,4.050781 -5.492188,4.980468 -0.574219,0.222656 -0.800781,0.234375 -0.992188,0.04297 L 66.746094,91.03125 66.71875,89.148438 C 66.69922,87.527344 66.6875,87.234375 66.625,87.027344 c -0.08984,-0.3125 -0.273438,-0.675782 -0.433594,-0.855469 l -0.125,-0.144531 0.09375,-0.01563 C 66.214844,86 66.46875,85.953125 66.730469,85.90625 c 0.917969,-0.164062 1.730469,-0.472656 2.289062,-0.875 1.046875,-0.75 1.621094,-1.949219 1.734375,-3.625 0.08203,-1.28125 -0.167968,-2.238281 -0.820312,-3.097656 l -0.203125,-0.269532 0.07031,-0.25 c 0.03906,-0.152343 0.07813,-0.472656 0.08984,-0.808593 0.01953,-0.605469 -0.03516,-0.988281 -0.207031,-1.472657 l -0.08984,-0.253906 -0.347656,0.0078 c -0.574219,0.01172 -1.421875,0.339843 -2.261719,0.878906 l -0.285156,0.183594 -0.285157,-0.07031 C 65.648438,76.058594 64.5,75.945312 63.710938,75.988281 63.113281,76.019531 62.226562,76.140625 61.804688,76.25 l -0.296876,0.07813 -0.355468,-0.222656 c -0.765625,-0.488281 -1.59375,-0.8125 -2.167969,-0.855469 -0.300781,-0.02344 -0.316406,-0.02344 -0.378906,0.07422 -0.03906,0.05859 -0.117188,0.285156 -0.175781,0.507812 -0.09375,0.347657 -0.109376,0.480469 -0.109376,1.011719 0,0.484375 0.01953,0.671875 0.08203,0.910156 l 0.08203,0.296875 -0.132813,0.164063 c -0.367187,0.4375 -0.671874,1.070312 -0.816406,1.683594 -0.101562,0.4375 -0.101562,1.691406 0,2.257812 0.378906,2.140625 1.585938,3.308594 3.855469,3.734375 0.300781,0.05469 0.589844,0.109375 0.644531,0.121094 l 0.09375,0.01953 -0.125,0.140625 c -0.175781,0.203125 -0.320312,0.503906 -0.414062,0.867187 -0.04297,0.171876 -0.109375,0.332032 -0.144532,0.359376 -0.03125,0.02344 -0.210937,0.08594 -0.394531,0.136718 -0.660156,0.183594 -1.304687,0.101563 -1.804687,-0.230468 -0.261719,-0.171876 -0.429688,-0.359376 -0.707032,-0.769532 -0.457031,-0.675781 -0.972656,-1.042968 -1.515624,-1.074218 -0.765626,-0.04297 -0.839844,0.226562 -0.183594,0.679687 0.402344,0.277344 0.71875,0.695313 1.070312,1.414063 0.296875,0.609374 0.5,0.863281 0.851563,1.074218 0.5,0.300782 1.308593,0.425782 2.140625,0.332032 0.234375,-0.02734 0.457031,-0.05859 0.496094,-0.07031 0.06641,-0.01953 0.07422,0.04687 0.07422,1.003906 0,1.144531 -0.01563,1.222657 -0.269531,1.328125 -0.203125,0.08594 -0.367187,0.06641 -0.75,-0.07813 z m 0,0"
       id="path7" />
  </g>
</svg>
