<?xml version="1.0" encoding="UTF-8" standalone="no"?>
<!-- Created with Inkscape (http://www.inkscape.org/) -->

<svg
   width="80mm"
   height="45mm"
   viewBox="0 0 80 45"
   version="1.1"
   id="svg1"
   xml:space="preserve"
   inkscape:version="1.3 (0e150ed6c4, 2023-07-21)"
   sodipodi:docname="home-banner.svg"
   inkscape:export-filename="../hashfolder_home_exported.svg"
   inkscape:export-xdpi="96"
   inkscape:export-ydpi="96"
   xmlns:inkscape="http://www.inkscape.org/namespaces/inkscape"
   xmlns:sodipodi="http://sodipodi.sourceforge.net/DTD/sodipodi-0.dtd"
   xmlns="http://www.w3.org/2000/svg"
   xmlns:svg="http://www.w3.org/2000/svg"><sodipodi:namedview
     id="namedview1"
     pagecolor="#ffffff"
     bordercolor="#000000"
     borderopacity="0.25"
     inkscape:showpageshadow="2"
     inkscape:pageopacity="0.0"
     inkscape:pagecheckerboard="0"
     inkscape:deskcolor="#d1d1d1"
     inkscape:document-units="mm"
     inkscape:zoom="1.2422184"
     inkscape:cx="195.21528"
     inkscape:cy="181.53008"
     inkscape:window-width="1366"
     inkscape:window-height="699"
     inkscape:window-x="0"
     inkscape:window-y="0"
     inkscape:window-maximized="1"
     inkscape:current-layer="layer1" /><defs
     id="defs1" /><g
     inkscape:label="Layer 1"
     inkscape:groupmode="layer"
     id="layer1"
     style="opacity:0.75"
     transform="matrix(0.95241981,0,0,0.95241981,-0.93439052,-3.3457163)"><path
       id="rect6-1-4"
       style="fill:#488de7;fill-opacity:0.462058;stroke-width:0.0544714"
       d="m 75.618623,10.11451 -4.730413,1.954494 -3.923358,12.113019 c -0.07179,0.221648 0.04887,0.457891 0.270506,0.529679 l 10.339668,3.34898 c 0.221654,0.07179 0.457891,-0.04887 0.52968,-0.270506 l 4.81586,-14.86853 c 0.07179,-0.22165 -0.04887,-0.457888 -0.270507,-0.529682 z" /><path
       id="path5"
       style="fill:#7bb0ee;fill-opacity:0.454903;stroke-width:0.0998454"
       d="m 35.211983,7.873627 c -1.243193,0.345644 -1.993467,1.581292 -1.745905,2.832675 l 0.406176,1.534341 c 0.328273,1.24008 -0.353338,2.490554 -1.535482,2.919604 l 0.0048,0.01808 -0.180791,0.04786 c -0.01088,0.0032 -0.02002,0.009 -0.03095,0.01191 L 6.4519563,22.035576 c -1.211747,0.35557 -1.935086,1.58321 -1.681123,2.827432 l 6.0192287,22.096664 c 0.335481,1.231557 1.583018,1.964351 2.816947,1.637703 l 44.39249,-11.751671 c 1.233935,-0.326648 1.971273,-1.584869 1.637704,-2.816948 L 51.998266,5.813567 C 51.664701,4.581483 50.415247,3.849215 49.181317,4.175864 Z"
       sodipodi:nodetypes="ccscccsccssssscc" /><g
       id="g8"
       transform="matrix(0.3244034,0,0,0.3244034,28.630151,-11.078518)"><path
         id="rect6-1"
         style="fill:#488de7;fill-opacity:1;stroke-width:0.264583"
         d="m 99.224784,59.529445 -18.933728,16.11168 v 61.845835 c 0,1.13171 0.911067,2.04277 2.04277,2.04277 h 52.791604 c 1.1317,0 2.04277,-0.91106 2.04277,-2.04277 V 61.572215 c 0,-1.1317 -0.91107,-2.04277 -2.04277,-2.04277 z" /><path
         id="rect6"
         style="fill:#6aa2eb;fill-opacity:1;stroke-width:0.264583"
         d="m 97.325299,75.864565 c 1.131703,0 2.04277,-0.91107 2.04277,-2.04277 v -14.06839 l -18.932695,16.11116 z" /></g><path
       id="rect4"
       style="fill:#62a0ea;fill-opacity:1;stroke-width:0.0998454"
       d="m 49.054537,16.438583 c -1.290246,0.016 -2.33175,1.018495 -2.41267,2.291562 v 1.587192 c 0,1.282796 -0.978903,2.317212 -2.231502,2.429442 v 0.01871 H 44.22335 c -0.01126,1.48e-4 -0.02166,0.0036 -0.03297,0.0036 H 17.628032 c -1.262391,0.03364 -2.275806,1.035289 -2.348704,2.303068 l 0.164098,22.901241 c 0.0091,1.276403 1.027615,2.304044 2.304047,2.304044 h 45.921623 c 1.276438,0 2.311211,-1.027626 2.304044,-2.304044 L 65.809045,18.742852 C 65.801845,17.466435 64.781433,16.438807 63.505,16.438807 Z"
       sodipodi:nodetypes="ccscccsccssssscc" /><rect
       style="fill:#99c1f1;fill-opacity:1;stroke-width:0.0678901"
       id="rect1"
       width="23.810087"
       height="17.1929"
       x="5.2665372"
       y="28.235138"
       ry="1.1156462" /><rect
       style="fill:#99c1f1;fill-opacity:1;stroke-width:0.0678901"
       id="rect1-5"
       width="17.166168"
       height="1.0036479"
       x="8.5836468"
       y="46.165249"
       ry="0.48861778" /><rect
       style="fill:#99c1f1;fill-opacity:1;stroke-width:0.0678901"
       id="rect1-1"
       width="23.810087"
       height="17.1929"
       x="52.306339"
       y="28.287693"
       ry="1.1156462" /><rect
       style="fill:#99c1f1;fill-opacity:1;stroke-width:0.0678901"
       id="rect1-5-2"
       width="17.166168"
       height="1.0036479"
       x="55.623451"
       y="46.217804"
       ry="0.48861778" /><path
       style="fill:#99c1f1;fill-opacity:1;stroke-width:0.0279402"
       d="m 39.106158,42.207653 c -2.009409,-0.765182 -3.497484,-2.522709 -3.916191,-4.625322 -0.0965,-0.484574 -0.122658,-0.827692 -0.107383,-1.408458 0.02535,-0.962253 0.211127,-1.717973 0.636072,-2.586983 0.600863,-1.228788 1.627889,-2.252268 2.862964,-2.853098 0.774176,-0.37661 1.429646,-0.5521 2.346583,-0.628265 0.605115,-0.0503 1.374932,0.025 2.037131,0.199158 0.959351,0.252308 1.949881,0.815086 2.718552,1.544573 0.774663,0.73517 1.414746,1.818427 1.699959,2.876959 0.158404,0.587887 0.192433,0.875002 0.192832,1.626749 4.03e-4,0.74201 -0.02137,0.939992 -0.167488,1.524924 -0.445373,1.782544 -1.669616,3.294453 -3.323355,4.104244 -0.71056,0.347939 -0.927967,0.395452 -1.078213,0.235645 l -0.0673,-0.07162 -0.01588,-1.136368 c -0.01382,-0.988645 -0.02236,-1.156349 -0.06594,-1.290041 -0.06431,-0.197123 -0.161462,-0.38852 -0.251697,-0.495754 l -0.07121,-0.08462 0.230312,-0.03277 c 0.682594,-0.09712 1.234164,-0.311011 1.644481,-0.637706 0.573959,-0.456981 0.870784,-1.11248 0.944449,-2.085688 0.05804,-0.766331 -0.09257,-1.3559 -0.47763,-1.870066 l -0.137172,-0.183167 0.04351,-0.161995 c 0.103145,-0.383644 0.07674,-0.93969 -0.06409,-1.349455 l -0.05284,-0.153673 -0.234527,0.0015 c -0.168769,5.11e-4 -0.289369,0.01973 -0.430115,0.0668 -0.241705,0.08088 -0.635815,0.275552 -0.890374,0.439785 l -0.191879,0.123794 -0.246812,-0.05797 c -0.814254,-0.191167 -1.940964,-0.185912 -2.707107,0.01258 l -0.175726,0.04549 -0.231223,-0.141793 C 39.043466,32.839027 38.54181,32.650926 38.214236,32.650926 h -0.172878 l -0.04251,0.11875 c -0.168704,0.471325 -0.19855,0.950323 -0.08619,1.383279 l 0.04536,0.174866 -0.130413,0.174386 c -0.159134,0.212785 -0.355569,0.613788 -0.420758,0.85892 -0.07329,0.275603 -0.08731,1.000775 -0.02677,1.387204 0.168947,1.079107 0.694894,1.766283 1.632468,2.13291 0.20184,0.07892 0.632931,0.184998 0.914765,0.225094 l 0.228139,0.03246 -0.09929,0.129853 c -0.117858,0.154149 -0.186052,0.305 -0.236278,0.522677 -0.03433,0.148786 -0.04494,0.163299 -0.15385,0.210045 -0.330922,0.142054 -0.781162,0.144661 -1.072631,0.0064 -0.243828,-0.115832 -0.385613,-0.246503 -0.587831,-0.541745 -0.192952,-0.281721 -0.388797,-0.47134 -0.596227,-0.577285 -0.269593,-0.137694 -0.713737,-0.11326 -0.713737,0.03926 0,0.05255 0.193836,0.243455 0.353354,0.347954 0.163029,0.106793 0.379155,0.410812 0.572222,0.804919 0.192489,0.392947 0.331947,0.553598 0.590159,0.679862 0.280603,0.137209 0.483362,0.168227 0.998883,0.15281 0.253555,-0.0076 0.483012,-0.02285 0.509909,-0.03389 0.04565,-0.01881 0.04892,0.01968 0.04892,0.584978 0,0.679448 -0.01446,0.74382 -0.18257,0.814065 -0.132777,0.05547 -0.158699,0.05163 -0.480349,-0.07086 z"
       id="path4" /><rect
       style="fill:#afd1f5;fill-opacity:1;stroke-width:0.0641923"
       id="rect5"
       width="22.743187"
       height="16.092049"
       x="5.772965"
       y="28.762793"
       ry="1.0442121" /><rect
       style="fill:#afd1f5;fill-opacity:1;stroke-width:0.0641923"
       id="rect5-0"
       width="22.743187"
       height="16.092049"
       x="52.831509"
       y="28.860003"
       ry="1.0442121" /><text
       xml:space="preserve"
       style="font-size:2.46713px;fill:#bed7f5;fill-opacity:1;stroke-width:0.205595"
       x="33.025654"
       y="47.81543"
       id="text5"><tspan
         sodipodi:role="line"
         id="tspan5"
         style="font-style:normal;font-variant:normal;font-weight:bold;font-stretch:normal;font-family:sans-serif;-inkscape-font-specification:sans-serif;fill:#bed7f5;fill-opacity:1;stroke-width:0.205595"
         x="33.025654"
         y="47.81543">HASH FOLDER</tspan></text></g></svg>
